<svg width="421" height="355" viewBox="0 0 421 355" fill="none" xmlns="http://www.w3.org/2000/svg">
<g clip-path="url(#clip0_2_2)">
<rect width="421" height="355" fill="#58A6EE"/>
<circle cx="73.5" cy="170.5" r="40.5" fill="#D9D9D9" fill-opacity="0.27"/>
<circle cx="114" cy="19" r="23" fill="#D9D9D9" fill-opacity="0.27"/>
<circle cx="254" cy="94" r="36" fill="#D9D9D9" fill-opacity="0.27"/>
<circle cx="168" cy="305" r="50" fill="#D9D9D9" fill-opacity="0.27"/>
<circle cx="404.5" cy="221.5" r="39.5" fill="#D9D9D9" fill-opacity="0.27"/>
<circle cx="39" cy="138" r="25" fill="#D9D9D9" fill-opacity="0.27"/>
<circle cx="284" cy="69" r="11" fill="#D9D9D9" fill-opacity="0.27"/>
<circle cx="272.5" cy="217.5" r="13.5" fill="#D9D9D9" fill-opacity="0.27"/>
<circle cx="325" cy="144" r="3" fill="#D9D9D9" fill-opacity="0.27"/>
<circle cx="383" cy="268" r="3" fill="#D9D9D9" fill-opacity="0.27"/>
<circle cx="335" cy="35" r="3" fill="#D9D9D9" fill-opacity="0.27"/>
<circle cx="134" cy="163" r="3" fill="#D9D9D9" fill-opacity="0.27"/>
<circle cx="276" cy="321" r="3" fill="#D9D9D9" fill-opacity="0.27"/>
<circle cx="51" cy="16" r="3" fill="#D9D9D9" fill-opacity="0.27"/>
<circle cx="128" cy="45" r="3" fill="#D9D9D9" fill-opacity="0.27"/>
<circle cx="171" cy="97" r="3" fill="#D9D9D9" fill-opacity="0.27"/>
<circle cx="61.5" cy="72.5" r="7.5" fill="#D9D9D9" fill-opacity="0.27"/>
<circle cx="213" cy="25" r="3" fill="#D9D9D9" fill-opacity="0.27"/>
</g>
<defs>
<clipPath id="clip0_2_2">
<rect width="421" height="355" fill="white"/>
</clipPath>
</defs>
</svg>
